# xmcd
#
# Track frame offsets:
#	150
#	10855
#	29470
#	48812
#	66664
#	80573
#	96257
#	113363
#	127152
#	148551
#	159826
#	181181
#	200165
#
# Disc length: 2921 seconds
#
# Revision: 1
# Processed by: cddbd v1.5.2PL0 Copyright (c) Steve Scherf et al.
# Submitted via: audiograbber 1.83.01
#
DISCID=ae0b670d
DTITLE=Maco Limido - Rebirth
DYEAR=2016
DGENRE=Blues
TTITLE0=After All
TTITLE1=My Mi
TTITLE2=Mix Mex
TTITLE3=Faith
TTITLE4=Rebirth
TTITLE5=Blues March
TTITLE6=Empty Waltz
TTITLE7=The Red Point
TTITLE8=Higher Power
TTITLE9=On The Rock
TTITLE10=Great Spirit
TTITLE11=New Bone
TTITLE12=Soul Simple
EXTD=
EXTT0=
EXTT1=
EXTT2=
EXTT3=
EXTT4=
EXTT5=
EXTT6=
EXTT7=
EXTT8=
EXTT9=
EXTT10=
EXTT11=
EXTT12=
PLAYORDER=
